<svg width="24" height="26" viewBox="0 0 24 26" fill="none" xmlns="http://www.w3.org/2000/svg">
<path d="M11.9998 7.02712C13.7465 7.02712 15.1632 5.61038 15.1632 3.86324C15.1632 2.11611 13.7465 0.699463 11.9998 0.699463C10.2523 0.699463 8.83594 2.11615 8.83594 3.86329C8.83594 5.61043 10.2523 7.02712 11.9998 7.02712Z" fill="white"/>
<path d="M22.4505 15.0864V10.5137L19.0877 11.2276C18.3464 9.72365 16.8382 9.00373 15.3146 8.66016L12.1689 12.6963L12.0016 12.732L11.83 12.6956L8.6847 8.66016C7.16154 9.00378 5.65329 9.7237 4.91274 11.2276L1.54882 10.5137V15.0864C0.675104 15.2007 0 15.947 0 16.8528C0 17.7582 0.675104 18.5041 1.54882 18.6188V23.7558L11.6798 25.9027L12.0016 25.9711L12.3231 25.9027L22.4505 23.7558V18.6188C23.3246 18.5041 24 17.7582 24 16.8528C24 15.947 23.3246 15.201 22.4505 15.0864ZM11.6797 25.2465L2.19253 23.2363V18.5871C2.51439 18.5112 2.80313 18.3489 3.03175 18.1253L6.21443 18.8003L6.28067 18.4859L3.26427 17.8461C3.34862 17.7214 3.4152 17.5844 3.46614 17.4395L6.21443 18.0227L6.28067 17.7087L3.54338 17.1276C3.55765 17.0379 3.56688 16.9464 3.56688 16.8527C3.56688 16.795 3.56401 16.7377 3.55829 16.6814L6.21438 17.2451L6.28062 16.9306L3.49067 16.3389C3.30874 15.7326 2.81275 15.2644 2.19253 15.118V11.3093L11.6797 13.3193V25.2465ZM21.8071 15.1181C21.1918 15.2627 20.6991 15.7241 20.5126 16.3226L17.6485 16.9307L17.7151 17.2452L20.4427 16.6666C20.4363 16.7275 20.4328 16.7898 20.4328 16.8528C20.4328 16.9414 20.4414 17.0276 20.4538 17.1127L17.6485 17.7087L17.7151 18.0227L20.5289 17.426C20.5781 17.5706 20.6443 17.7076 20.7269 17.8326L17.6485 18.4859L17.7151 18.8003L20.9473 18.115L20.9448 18.1022C21.1769 18.3382 21.4739 18.5088 21.8071 18.5871V23.2363L12.3231 25.2465V13.3194L21.8071 11.3094V15.1181Z" fill="white"/>
<path d="M6.24586 13.2313L3.01367 12.5459V13.3239L6.24586 14.0093V13.2313Z" fill="white"/>
<path d="M6.27958 14.6314L3.04666 13.9457L2.98047 14.2601L6.21335 14.9458L6.27958 14.6314Z" fill="white"/>
<path d="M6.27958 15.4076L3.04666 14.7216L2.98047 15.0363L6.21335 15.7224L6.27958 15.4076Z" fill="white"/>
<path d="M4.31562 18.8461L3.04666 18.5767L2.98047 18.8911L4.24943 19.1603L4.31562 18.8461Z" fill="white"/>
<path d="M2.98047 20.4133L6.21335 21.0994L6.27958 20.7847L3.04666 20.0992L2.98047 20.4133Z" fill="white"/>
<path d="M4.9241 21.2735L3.04666 20.8751L2.98047 21.1895L4.85751 21.5879L4.9241 21.2735Z" fill="white"/>
<path d="M2.98047 21.9689L6.21335 22.6543L6.27958 22.3406L3.04666 21.6542L2.98047 21.9689Z" fill="white"/>
<path d="M2.98047 22.746L6.21335 23.4318L6.27958 23.1174L3.04666 22.4316L2.98047 22.746Z" fill="white"/>
<path d="M10.4605 13.9316L7.2283 13.2458L7.16211 13.5603L10.3943 14.2464L10.4605 13.9316Z" fill="white"/>
<path d="M10.4605 14.7103L7.2283 14.0249L7.16211 14.3393L10.3943 15.0243L10.4605 14.7103Z" fill="white"/>
<path d="M10.4605 15.4878L7.2283 14.8024L7.16211 15.1165L10.3943 15.8025L10.4605 15.4878Z" fill="white"/>
<path d="M10.4605 16.2663L7.2283 15.5798L7.16211 15.8946L10.3943 16.5807L10.4605 16.2663Z" fill="white"/>
<path d="M7.19531 18.8149L10.4282 19.5006V17.945L7.19531 17.2593V18.8149ZM7.51722 17.6559L10.1064 18.2056V19.1035L7.51722 18.5542V17.6559Z" fill="white"/>
<path d="M10.4605 20.1195L7.2283 19.4333L7.16211 19.7481L10.3943 20.4339L10.4605 20.1195Z" fill="white"/>
<path d="M10.4605 21.6414L7.2283 20.9559L7.16211 21.2707L10.3943 21.9561L10.4605 21.6414Z" fill="white"/>
<path d="M10.4605 22.4192L7.2283 21.7334L7.16211 22.0478L10.3943 22.7339L10.4605 22.4192Z" fill="white"/>
<path d="M10.4605 23.197L7.2283 22.5109L7.16211 22.8252L10.3943 23.5106L10.4605 23.197Z" fill="white"/>
<path d="M9.2699 23.722L7.2283 23.2883L7.16211 23.6027L9.20366 24.0364L9.2699 23.722Z" fill="white"/>
<path d="M20.9475 12.7051L20.8809 12.3907L17.6484 13.0757L17.715 13.3901L20.9475 12.7051Z" fill="white"/>
<path d="M20.9472 13.4813L20.8806 13.1666L17.6484 13.8523L17.715 14.1663L20.9472 13.4813Z" fill="white"/>
<path d="M20.9475 14.2601L20.8809 13.9457L17.6484 14.6306L17.715 14.945L20.9475 14.2601Z" fill="white"/>
<path d="M20.9472 15.0363L20.8806 14.7216L17.6484 15.4076L17.715 15.7224L20.9472 15.0363Z" fill="white"/>
<path d="M19.6789 19.1607L19.6124 18.8466L17.6484 19.2635L17.715 19.5779L19.6789 19.1607Z" fill="white"/>
<path d="M20.9472 20.4133L20.8806 20.0992L17.6484 20.7847L17.715 21.0994L20.9472 20.4133Z" fill="white"/>
<path d="M20.9475 21.1911L20.8809 20.8767L17.6484 21.5617L17.715 21.876L20.9475 21.1911Z" fill="white"/>
<path d="M19.9666 22.1751L19.9001 21.8611L17.6484 22.3389L17.715 22.6526L19.9666 22.1751Z" fill="white"/>
<path d="M20.9475 22.746L20.8809 22.4316L17.6484 23.1166L17.715 23.431L20.9475 22.746Z" fill="white"/>
<path d="M16.7666 13.5603L16.6997 13.2458L13.4668 13.9316L13.5337 14.2464L16.7666 13.5603Z" fill="white"/>
<path d="M16.7666 14.3393L16.6997 14.0249L13.4668 14.7103L13.5337 15.0243L16.7666 14.3393Z" fill="white"/>
<path d="M16.7666 15.1165L16.6997 14.8024L13.4668 15.4878L13.5337 15.8025L16.7666 15.1165Z" fill="white"/>
<path d="M15.3503 16.1955L15.2837 15.8805L13.4668 16.2664L13.5337 16.5808L15.3503 16.1955Z" fill="white"/>
<path d="M13.502 18.723L16.7341 18.0376V17.2593L13.502 17.945V18.723Z" fill="white"/>
<path d="M16.7666 18.9715L16.6997 18.6575L13.4668 19.3429L13.5337 19.6576L16.7666 18.9715Z" fill="white"/>
<path d="M15.4976 20.0173L15.4314 19.7032L13.4668 20.1202L13.5337 20.4346L15.4976 20.0173Z" fill="white"/>
<path d="M16.7666 21.2707L16.6997 20.9559L13.4668 21.6414L13.5337 21.9561L16.7666 21.2707Z" fill="white"/>
<path d="M16.7666 22.0478L16.6997 21.7334L13.4668 22.4192L13.5337 22.7339L16.7666 22.0478Z" fill="white"/>
<path d="M16.7666 22.8252L16.6997 22.5109L13.4668 23.197L13.5337 23.5106L16.7666 22.8252Z" fill="white"/>
<path d="M14.5057 24.0832L14.4388 23.7684L13.4668 23.9743L13.5337 24.2893L14.5057 24.0832Z" fill="white"/>
<path d="M12.7147 8.55347H11.2852V9.26806H12.7147V8.55347Z" fill="white"/>
<path d="M11.2852 11.3522L12.0005 12.2687L12.7147 11.3522V9.57983H11.2852V11.3522Z" fill="white"/>
</svg>
