<svg width="57" height="72" viewBox="0 0 57 72" fill="none" xmlns="http://www.w3.org/2000/svg">
<path d="M19.7301 31.7221C19.7301 23.7532 19.7274 15.784 19.7219 7.81442C19.7219 7.20449 19.8966 6.72849 20.3255 6.2923C22.349 4.24532 24.3625 2.18868 26.366 0.122392C26.509 -0.0251139 26.5986 -0.0486424 26.747 0.103388C28.1425 1.52596 29.5524 2.93767 30.9351 4.3702C31.3043 4.75118 31.326 5.26157 31.326 5.77377C31.326 12.2215 31.3351 18.6701 31.317 25.1179C31.317 25.7242 31.4853 26.0988 31.9975 26.4527C34.0644 27.8816 36.0897 29.3693 38.143 30.8181C38.4145 31.0118 38.5384 31.2208 38.5384 31.5421C38.5348 36.3081 38.533 41.076 38.533 45.8456C38.533 45.9922 38.5964 46.1822 38.4009 46.2619C38.2199 46.3361 38.1122 46.1822 37.9864 46.0927C35.9738 44.6622 33.9606 43.2327 31.9468 41.8041C31.7921 41.6946 31.6609 41.4286 31.441 41.5526C31.241 41.6648 31.3342 41.9272 31.3333 42.1227C31.3279 46.5044 31.2917 50.8871 31.3333 55.2688C31.3779 59.8538 29.7587 63.7297 26.4755 66.8964C24.2729 69.0194 21.6386 70.3651 18.6125 70.9361C11.4634 72.2863 4.44286 68.6737 1.4303 62.0486C0.528713 60.0847 0.0616829 57.9492 0.0611228 55.7882C0.0556931 47.7041 0.048757 39.6199 0.0403109 31.5357C0.0403109 30.2426 0.0294484 28.9485 0.00320505 27.6544C-0.0146023 27.3158 0.0419532 26.9774 0.1689 26.663C0.295846 26.3487 0.490104 26.0659 0.738019 25.8346C3.66461 22.9605 6.57732 20.0728 9.47616 17.1715C10.0065 16.6449 10.5159 16.0983 11.0372 15.5626C11.1431 15.4531 11.2236 15.2476 11.3992 15.2983C11.6272 15.3653 11.5467 15.6024 11.5476 15.7707C11.5554 17.3598 11.5587 18.9492 11.5575 20.5388C11.5575 32.0274 11.5575 43.516 11.5575 55.0046C11.5575 57.2081 12.4842 58.675 14.3158 59.418C16.6379 60.36 19.5645 58.542 19.7066 56.0326C19.7717 54.9014 19.7265 53.763 19.7274 52.6282C19.7274 45.6577 19.7274 38.6872 19.7274 31.7167L19.7301 31.7221Z" fill="white"/>
<path d="M53.1035 32.6218C53.1035 34.3693 53.1135 36.1176 53.0954 37.8705C53.0954 38.2768 53.2202 38.5465 53.5533 38.7754C54.5559 39.475 55.5306 40.2143 56.5396 40.9039C56.8599 41.1229 56.992 41.3563 56.992 41.7382C56.9824 46.4379 56.9791 51.1376 56.9821 55.8373C56.9821 56.0101 57.0644 56.2373 56.8844 56.344C56.6762 56.4662 56.4998 56.2816 56.3414 56.1694C55.4573 55.5359 54.5804 54.897 53.6999 54.26C53.5578 54.1577 53.4284 53.9776 53.2257 54.079C53.023 54.1803 53.089 54.3984 53.0881 54.5731C53.0881 56.2291 53.1469 57.9033 52.6546 59.5032C51.376 63.6596 49.091 66.997 45.13 69.1237C42.3066 70.6394 39.4054 71.4702 36.2046 71.205C34.9149 71.1082 33.6428 70.8473 32.4192 70.4286C32.2617 70.3734 32.021 70.3381 32.0083 70.1318C31.9957 69.9254 32.2147 69.8721 32.3767 69.787C34.9449 68.4486 37.2027 66.7409 38.8244 64.2931C40.6144 61.5918 41.4795 58.6145 41.4786 55.3767C41.4732 42.3219 41.4732 29.2672 41.4786 16.2125C41.4786 15.8885 41.2976 15.408 41.6134 15.2722C41.9292 15.1365 42.1501 15.6062 42.3763 15.8324C45.8036 19.2603 49.2243 22.6952 52.6384 26.137C52.9868 26.4863 53.0908 26.8999 53.0908 27.3695C53.0908 29.1179 53.0908 30.8662 53.0908 32.6182L53.1035 32.6218Z" fill="white"/>
<path d="M53.0677 24.3755C51.3529 22.6634 49.7565 21.0861 48.181 19.4888C46.1087 17.3948 44.0599 15.2781 41.9804 13.1913C41.6121 12.8221 41.4727 12.4465 41.4781 11.9325C41.5026 9.71 41.4872 7.48655 41.4935 5.2631C41.4935 5.06944 41.3894 4.80429 41.5921 4.69661C41.8193 4.57715 41.9378 4.84592 42.0691 4.97804C44.5655 7.48414 47.0595 9.99294 49.5511 12.5045C50.5402 13.4999 51.542 14.4781 52.5447 15.4591C52.8307 15.7396 53.0578 16.0727 53.0605 16.4636C53.0768 19.0472 53.0677 21.6245 53.0677 24.3755Z" fill="#B3B4B6"/>
</svg>
