<svg width="123" height="48" viewBox="0 0 123 48" fill="none" xmlns="http://www.w3.org/2000/svg">
<path d="M13.0142 21.4243C13.0142 16.1679 13.0124 10.9113 13.0088 5.65449C13.0088 5.25217 13.1241 4.9382 13.407 4.65048C14.7417 3.30027 16.0698 1.94368 17.3914 0.580731C17.4857 0.483435 17.5448 0.467915 17.6427 0.568196C18.5631 1.50654 19.4931 2.43773 20.4052 3.38264C20.6487 3.63394 20.6631 3.9706 20.6631 4.30845C20.6631 8.56146 20.669 12.8151 20.6571 17.0681C20.6571 17.468 20.7681 17.7151 21.106 17.9485C22.4693 18.891 23.8052 19.8724 25.1596 20.828C25.3387 20.9558 25.4205 21.0936 25.4205 21.3056C25.4181 24.4493 25.4169 27.5942 25.4169 30.7404C25.4169 30.8371 25.4587 30.9624 25.3297 31.0149C25.2103 31.0639 25.1393 30.9624 25.0563 30.9033C23.7288 29.9598 22.4009 29.0169 21.0725 28.0745C20.9705 28.0023 20.8839 27.8268 20.7389 27.9086C20.607 27.9826 20.6684 28.1557 20.6678 28.2847C20.6643 31.1749 20.6404 34.0658 20.6678 36.956C20.6973 39.9804 19.6292 42.5369 17.4636 44.6257C16.0107 46.0261 14.2731 46.9137 12.277 47.2904C7.56142 48.181 2.93057 45.7981 0.943447 41.4281C0.348746 40.1326 0.0406868 38.7241 0.0403174 37.2986C0.0367359 31.9662 0.0321608 26.6338 0.0265896 21.3014C0.0265896 20.4484 0.0194246 19.5948 0.00211409 18.7412C-0.0096319 18.5179 0.0276729 18.2947 0.111408 18.0873C0.195144 17.8799 0.323279 17.6934 0.486807 17.5408C2.41722 15.645 4.33849 13.7403 6.2506 11.8266C6.60039 11.4792 6.93645 11.1186 7.28027 10.7653C7.35011 10.693 7.40324 10.5575 7.51904 10.591C7.66946 10.6351 7.61634 10.7915 7.61693 10.9026C7.62211 11.9507 7.62429 12.9991 7.6235 14.0477C7.6235 21.6257 7.6235 29.2037 7.6235 36.7817C7.6235 38.2352 8.23474 39.2028 9.44289 39.6929C10.9746 40.3142 12.905 39.115 12.9987 37.4598C13.0417 36.7137 13.0118 35.9627 13.0124 35.2142C13.0124 30.6164 13.0124 26.0186 13.0124 21.4208L13.0142 21.4243Z" fill="white"/>
<path d="M35.0278 22.0186C35.0278 23.1712 35.0343 24.3244 35.0224 25.4807C35.0224 25.7487 35.1048 25.9266 35.3244 26.0776C35.9858 26.539 36.6287 27.0267 37.2943 27.4815C37.5056 27.626 37.5927 27.78 37.5927 28.0319C37.5863 31.1318 37.5842 34.2318 37.5862 37.3318C37.5862 37.4458 37.6405 37.5956 37.5217 37.666C37.3844 37.7466 37.268 37.6249 37.1635 37.5508C36.5803 37.133 36.0019 36.7116 35.4211 36.2914C35.3274 36.2239 35.2421 36.1051 35.1084 36.172C34.9747 36.2388 35.0182 36.3827 35.0176 36.4979C35.0176 37.5902 35.0564 38.6945 34.7317 39.7499C33.8883 42.4915 32.3811 44.6929 29.7684 46.0956C27.906 47.0955 25.9923 47.6434 23.881 47.4685C23.0303 47.4047 22.1913 47.2326 21.3841 46.9564C21.2803 46.92 21.1215 46.8967 21.1131 46.7606C21.1048 46.6245 21.2492 46.5893 21.3561 46.5332C23.0501 45.6504 24.5394 44.524 25.6091 42.9093C26.7898 41.1275 27.3604 39.1637 27.3598 37.0279C27.3563 28.4169 27.3563 19.8058 27.3598 11.1947C27.3598 10.981 27.2405 10.6641 27.4488 10.5746C27.6571 10.485 27.8027 10.7948 27.952 10.944C30.2127 13.2051 32.469 15.4708 34.721 17.7411C34.9508 17.9715 35.0194 18.2443 35.0194 18.5541C35.0194 19.7073 35.0194 20.8606 35.0194 22.0162L35.0278 22.0186Z" fill="white"/>
<path d="M35.0042 16.5783C33.873 15.4489 32.8201 14.4085 31.7809 13.355C30.4139 11.9737 29.0625 10.5775 27.6908 9.20104C27.4479 8.9575 27.3559 8.70978 27.3595 8.37074C27.3756 6.90472 27.3655 5.4381 27.3697 3.97149C27.3697 3.84375 27.301 3.66885 27.4347 3.59782C27.5846 3.51903 27.6628 3.69631 27.7493 3.78346C29.396 5.43651 31.0411 7.09135 32.6846 8.74799C33.337 9.40459 33.9978 10.0499 34.6592 10.6969C34.8478 10.8819 34.9976 11.1016 34.9994 11.3595C35.0102 13.0637 35.0042 14.7637 35.0042 16.5783Z" fill="#B3B4B6"/>
<path d="M47.6286 28.5C47.3206 28.5 47.0826 28.4207 46.9146 28.262C46.756 28.094 46.6766 27.856 46.6766 27.548V19.582C46.6766 19.274 46.756 19.0407 46.9146 18.882C47.0826 18.714 47.3206 18.63 47.6286 18.63H50.9886C51.6793 18.63 52.2673 18.7327 52.7526 18.938C53.238 19.1433 53.6066 19.4373 53.8586 19.82C54.12 20.2027 54.2506 20.66 54.2506 21.192C54.2506 21.7893 54.078 22.2933 53.7326 22.704C53.3873 23.1147 52.916 23.39 52.3186 23.53V23.32C53.0093 23.4227 53.546 23.684 53.9286 24.104C54.3113 24.524 54.5026 25.07 54.5026 25.742C54.5026 26.6193 54.204 27.3007 53.6066 27.786C53.0186 28.262 52.1973 28.5 51.1426 28.5H47.6286ZM48.3986 27.142H50.9186C51.5533 27.142 52.02 27.0207 52.3186 26.778C52.6173 26.526 52.7666 26.1527 52.7666 25.658C52.7666 25.154 52.6173 24.7807 52.3186 24.538C52.02 24.2953 51.5533 24.174 50.9186 24.174H48.3986V27.142ZM48.3986 22.816H50.6806C51.2966 22.816 51.754 22.6993 52.0526 22.466C52.3606 22.2233 52.5146 21.8687 52.5146 21.402C52.5146 20.9353 52.3606 20.5853 52.0526 20.352C51.754 20.1093 51.2966 19.988 50.6806 19.988H48.3986V22.816ZM58.5833 31.132C58.378 31.132 58.21 31.076 58.0793 30.964C57.9486 30.8613 57.8693 30.7213 57.8413 30.544C57.8226 30.3667 57.8553 30.18 57.9393 29.984L58.8913 27.87V28.598L56.3433 22.704C56.2593 22.4987 56.2313 22.3073 56.2593 22.13C56.2873 21.9527 56.3713 21.8127 56.5113 21.71C56.6606 21.598 56.8613 21.542 57.1133 21.542C57.328 21.542 57.5006 21.5933 57.6313 21.696C57.762 21.7893 57.8786 21.9713 57.9813 22.242L59.8713 26.96H59.4513L61.3833 22.228C61.486 21.9667 61.6073 21.7893 61.7473 21.696C61.8873 21.5933 62.074 21.542 62.3073 21.542C62.5126 21.542 62.676 21.598 62.7973 21.71C62.9186 21.8127 62.9933 21.9527 63.0213 22.13C63.0493 22.298 63.0166 22.4847 62.9233 22.69L59.5213 30.46C59.4 30.7213 59.2693 30.8987 59.1293 30.992C58.9893 31.0853 58.8073 31.132 58.5833 31.132ZM77.7892 30.082C77.9199 30.2873 77.9712 30.474 77.9432 30.642C77.9152 30.81 77.8406 30.95 77.7192 31.062C77.5979 31.1833 77.4486 31.258 77.2712 31.286C77.0939 31.3233 76.9166 31.3047 76.7392 31.23C76.5619 31.1647 76.4126 31.034 76.2912 30.838L75.3252 29.284C75.1946 29.0693 75.0172 28.906 74.7932 28.794C74.5786 28.6913 74.3126 28.64 73.9952 28.64L75.3812 28.094C75.8199 28.094 76.1699 28.1733 76.4312 28.332C76.6926 28.4813 76.9446 28.7473 77.1872 29.13L77.7892 30.082ZM74.0092 28.64C73.0572 28.64 72.2219 28.43 71.5032 28.01C70.7939 27.59 70.2432 27.002 69.8512 26.246C69.4592 25.4807 69.2632 24.5847 69.2632 23.558C69.2632 22.7833 69.3752 22.088 69.5992 21.472C69.8232 20.8467 70.1406 20.3147 70.5512 19.876C70.9712 19.428 71.4706 19.0873 72.0492 18.854C72.6372 18.6113 73.2906 18.49 74.0092 18.49C74.9706 18.49 75.8059 18.7 76.5152 19.12C77.2246 19.5307 77.7752 20.114 78.1672 20.87C78.5592 21.626 78.7552 22.5173 78.7552 23.544C78.7552 24.3187 78.6432 25.0187 78.4192 25.644C78.1952 26.2693 77.8732 26.806 77.4532 27.254C77.0426 27.702 76.5432 28.0473 75.9552 28.29C75.3766 28.5233 74.7279 28.64 74.0092 28.64ZM74.0092 27.1C74.6159 27.1 75.1292 26.96 75.5492 26.68C75.9786 26.4 76.3052 25.994 76.5292 25.462C76.7626 24.93 76.8792 24.2953 76.8792 23.558C76.8792 22.438 76.6272 21.57 76.1232 20.954C75.6286 20.338 74.9239 20.03 74.0092 20.03C73.4119 20.03 72.8986 20.17 72.4692 20.45C72.0399 20.7207 71.7086 21.122 71.4752 21.654C71.2512 22.1767 71.1392 22.8113 71.1392 23.558C71.1392 24.6687 71.3912 25.5367 71.8952 26.162C72.3992 26.7873 73.1039 27.1 74.0092 27.1ZM83.7554 28.612C83.5221 28.612 83.3214 28.556 83.1534 28.444C82.9854 28.3227 82.8501 28.136 82.7474 27.884L80.7174 22.704C80.6334 22.48 80.6054 22.284 80.6334 22.116C80.6707 21.9387 80.7594 21.7987 80.8994 21.696C81.0394 21.5933 81.2261 21.542 81.4594 21.542C81.6647 21.542 81.8327 21.5933 81.9634 21.696C82.0941 21.7893 82.2061 21.9713 82.2994 22.242L83.9934 26.904H83.6714L85.4214 22.13C85.4961 21.9247 85.5941 21.7753 85.7154 21.682C85.8461 21.5887 86.0141 21.542 86.2194 21.542C86.4247 21.542 86.5927 21.5933 86.7234 21.696C86.8541 21.7893 86.9521 21.934 87.0174 22.13L88.7394 26.904H88.4454L90.1534 22.2C90.2467 21.948 90.3634 21.7753 90.5034 21.682C90.6527 21.5887 90.8161 21.542 90.9934 21.542C91.2174 21.542 91.3901 21.598 91.5114 21.71C91.6327 21.822 91.7027 21.9667 91.7214 22.144C91.7401 22.312 91.7074 22.4987 91.6234 22.704L89.6074 27.884C89.5141 28.1267 89.3787 28.3087 89.2014 28.43C89.0334 28.5513 88.8327 28.612 88.5994 28.612C88.3661 28.612 88.1607 28.5513 87.9834 28.43C87.8154 28.3087 87.6847 28.1267 87.5914 27.884L85.7574 23.026H86.5554L84.7634 27.87C84.6701 28.122 84.5394 28.3087 84.3714 28.43C84.2034 28.5513 83.9981 28.612 83.7554 28.612ZM95.8622 28.64C95.3676 28.64 94.9242 28.5467 94.5322 28.36C94.1496 28.164 93.8462 27.9027 93.6222 27.576C93.4076 27.2493 93.3002 26.8807 93.3002 26.47C93.3002 25.966 93.4309 25.5693 93.6922 25.28C93.9536 24.9813 94.3782 24.7667 94.9662 24.636C95.5542 24.5053 96.3429 24.44 97.3322 24.44H98.0322V25.448H97.3462C96.7676 25.448 96.3056 25.476 95.9602 25.532C95.6149 25.588 95.3676 25.686 95.2182 25.826C95.0782 25.9567 95.0082 26.1433 95.0082 26.386C95.0082 26.694 95.1156 26.946 95.3302 27.142C95.5449 27.338 95.8436 27.436 96.2262 27.436C96.5342 27.436 96.8049 27.366 97.0382 27.226C97.2809 27.0767 97.4722 26.876 97.6122 26.624C97.7522 26.372 97.8222 26.0827 97.8222 25.756V24.146C97.8222 23.6793 97.7196 23.3433 97.5142 23.138C97.3089 22.9327 96.9636 22.83 96.4782 22.83C96.2076 22.83 95.9136 22.8627 95.5962 22.928C95.2882 22.9933 94.9616 23.1053 94.6162 23.264C94.4389 23.348 94.2802 23.3713 94.1402 23.334C94.0096 23.2967 93.9069 23.222 93.8322 23.11C93.7576 22.9887 93.7202 22.858 93.7202 22.718C93.7202 22.578 93.7576 22.4427 93.8322 22.312C93.9069 22.172 94.0329 22.0693 94.2102 22.004C94.6396 21.8267 95.0502 21.7007 95.4422 21.626C95.8436 21.5513 96.2076 21.514 96.5342 21.514C97.2062 21.514 97.7569 21.6167 98.1862 21.822C98.6249 22.0273 98.9516 22.34 99.1662 22.76C99.3809 23.1707 99.4882 23.7027 99.4882 24.356V27.716C99.4882 28.0053 99.4182 28.2293 99.2782 28.388C99.1382 28.5373 98.9376 28.612 98.6762 28.612C98.4149 28.612 98.2096 28.5373 98.0602 28.388C97.9202 28.2293 97.8502 28.0053 97.8502 27.716V27.044H97.9622C97.8969 27.3707 97.7662 27.6553 97.5702 27.898C97.3836 28.1313 97.1456 28.3133 96.8562 28.444C96.5669 28.5747 96.2356 28.64 95.8622 28.64ZM104.47 28.64C104.069 28.64 103.644 28.598 103.196 28.514C102.748 28.43 102.347 28.2853 101.992 28.08C101.843 27.9867 101.736 27.8793 101.67 27.758C101.614 27.6273 101.591 27.5013 101.6 27.38C101.619 27.2493 101.666 27.1373 101.74 27.044C101.824 26.9507 101.927 26.89 102.048 26.862C102.179 26.834 102.319 26.8573 102.468 26.932C102.842 27.1093 103.192 27.2353 103.518 27.31C103.845 27.3753 104.167 27.408 104.484 27.408C104.932 27.408 105.264 27.3333 105.478 27.184C105.702 27.0253 105.814 26.82 105.814 26.568C105.814 26.3533 105.74 26.19 105.59 26.078C105.45 25.9567 105.236 25.868 104.946 25.812L103.546 25.546C102.968 25.434 102.524 25.224 102.216 24.916C101.918 24.5987 101.768 24.1927 101.768 23.698C101.768 23.25 101.89 22.8627 102.132 22.536C102.384 22.2093 102.73 21.9573 103.168 21.78C103.607 21.6027 104.111 21.514 104.68 21.514C105.091 21.514 105.474 21.5607 105.828 21.654C106.192 21.738 106.542 21.8733 106.878 22.06C107.018 22.1347 107.112 22.2327 107.158 22.354C107.214 22.4753 107.228 22.6013 107.2 22.732C107.172 22.8533 107.116 22.9653 107.032 23.068C106.948 23.1613 106.841 23.222 106.71 23.25C106.589 23.2687 106.449 23.2407 106.29 23.166C106.001 23.0167 105.721 22.9093 105.45 22.844C105.189 22.7787 104.937 22.746 104.694 22.746C104.237 22.746 103.896 22.8253 103.672 22.984C103.458 23.1427 103.35 23.3527 103.35 23.614C103.35 23.81 103.416 23.9733 103.546 24.104C103.677 24.2347 103.878 24.3233 104.148 24.37L105.548 24.636C106.155 24.748 106.612 24.9533 106.92 25.252C107.238 25.5507 107.396 25.952 107.396 26.456C107.396 27.1373 107.13 27.674 106.598 28.066C106.066 28.4487 105.357 28.64 104.47 28.64ZM111.754 28.64C111.26 28.64 110.816 28.5467 110.424 28.36C110.042 28.164 109.738 27.9027 109.514 27.576C109.3 27.2493 109.192 26.8807 109.192 26.47C109.192 25.966 109.323 25.5693 109.584 25.28C109.846 24.9813 110.27 24.7667 110.858 24.636C111.446 24.5053 112.235 24.44 113.224 24.44H113.924V25.448H113.238C112.66 25.448 112.198 25.476 111.852 25.532C111.507 25.588 111.26 25.686 111.11 25.826C110.97 25.9567 110.9 26.1433 110.9 26.386C110.9 26.694 111.008 26.946 111.222 27.142C111.437 27.338 111.736 27.436 112.118 27.436C112.426 27.436 112.697 27.366 112.93 27.226C113.173 27.0767 113.364 26.876 113.504 26.624C113.644 26.372 113.714 26.0827 113.714 25.756V24.146C113.714 23.6793 113.612 23.3433 113.406 23.138C113.201 22.9327 112.856 22.83 112.37 22.83C112.1 22.83 111.806 22.8627 111.488 22.928C111.18 22.9933 110.854 23.1053 110.508 23.264C110.331 23.348 110.172 23.3713 110.032 23.334C109.902 23.2967 109.799 23.222 109.724 23.11C109.65 22.9887 109.612 22.858 109.612 22.718C109.612 22.578 109.65 22.4427 109.724 22.312C109.799 22.172 109.925 22.0693 110.102 22.004C110.532 21.8267 110.942 21.7007 111.334 21.626C111.736 21.5513 112.1 21.514 112.426 21.514C113.098 21.514 113.649 21.6167 114.078 21.822C114.517 22.0273 114.844 22.34 115.058 22.76C115.273 23.1707 115.38 23.7027 115.38 24.356V27.716C115.38 28.0053 115.31 28.2293 115.17 28.388C115.03 28.5373 114.83 28.612 114.568 28.612C114.307 28.612 114.102 28.5373 113.952 28.388C113.812 28.2293 113.742 28.0053 113.742 27.716V27.044H113.854C113.789 27.3707 113.658 27.6553 113.462 27.898C113.276 28.1313 113.038 28.3133 112.748 28.444C112.459 28.5747 112.128 28.64 111.754 28.64ZM118.753 28.612C118.463 28.612 118.239 28.5373 118.081 28.388C117.931 28.2293 117.857 28.0053 117.857 27.716V22.424C117.857 22.1347 117.931 21.9153 118.081 21.766C118.23 21.6167 118.44 21.542 118.711 21.542C118.981 21.542 119.191 21.6167 119.341 21.766C119.49 21.9153 119.565 22.1347 119.565 22.424V23.306H119.425C119.555 22.746 119.812 22.3213 120.195 22.032C120.577 21.7427 121.086 21.57 121.721 21.514C121.917 21.4953 122.071 21.5467 122.183 21.668C122.304 21.78 122.374 21.9573 122.393 22.2C122.411 22.4333 122.355 22.6247 122.225 22.774C122.103 22.914 121.917 22.998 121.665 23.026L121.357 23.054C120.787 23.11 120.358 23.2873 120.069 23.586C119.779 23.8753 119.635 24.286 119.635 24.818V27.716C119.635 28.0053 119.56 28.2293 119.411 28.388C119.261 28.5373 119.042 28.612 118.753 28.612Z" fill="#D500F9"/>
</svg>
