<svg width="167" height="66" viewBox="0 0 167 66" fill="none" xmlns="http://www.w3.org/2000/svg">
<path d="M10.9 33.256C10.324 33.256 9.85467 33.1173 9.492 32.84C9.15067 32.5627 8.87333 32.1253 8.66 31.528L1.972 12.616C1.73733 11.9333 1.78 11.3573 2.1 10.888C2.44133 10.4187 3.00667 10.184 3.796 10.184C4.372 10.184 4.82 10.3227 5.14 10.6C5.46 10.856 5.716 11.272 5.908 11.848L11.668 28.936H10.388L16.404 11.88C16.6173 11.304 16.884 10.8773 17.204 10.6C17.524 10.3227 17.94 10.184 18.452 10.184C18.964 10.184 19.3693 10.3227 19.668 10.6C19.9667 10.8773 20.2227 11.3147 20.436 11.912L26.26 28.936H25.14L30.996 11.848C31.188 11.2933 31.444 10.8773 31.764 10.6C32.084 10.3227 32.5213 10.184 33.076 10.184C33.7587 10.184 34.26 10.4187 34.58 10.888C34.9 11.3573 34.9427 11.9333 34.708 12.616L27.956 31.56C27.7427 32.136 27.4653 32.5627 27.124 32.84C26.7827 33.1173 26.324 33.256 25.748 33.256C25.172 33.256 24.7133 33.1173 24.372 32.84C24.0307 32.5627 23.7533 32.1253 23.54 31.528L17.972 15.656H18.708L13.076 31.56C12.8627 32.136 12.5853 32.5627 12.244 32.84C11.924 33.1173 11.476 33.256 10.9 33.256ZM45.517 33.32C43.7463 33.32 42.221 32.9893 40.941 32.328C39.661 31.6667 38.669 30.728 37.965 29.512C37.2823 28.296 36.941 26.856 36.941 25.192C36.941 23.5707 37.2717 22.152 37.933 20.936C38.6157 19.72 39.5437 18.7707 40.717 18.088C41.9117 17.384 43.2663 17.032 44.781 17.032C45.8903 17.032 46.8823 17.2133 47.757 17.576C48.653 17.9387 49.4103 18.4613 50.029 19.144C50.669 19.8267 51.149 20.6587 51.469 21.64C51.8103 22.6 51.981 23.688 51.981 24.904C51.981 25.288 51.8423 25.5867 51.565 25.8C51.309 25.992 50.9357 26.088 50.445 26.088H40.173V23.784H49.165L48.653 24.264C48.653 23.2827 48.5037 22.4613 48.205 21.8C47.9277 21.1387 47.5117 20.6373 46.957 20.296C46.4237 19.9333 45.7517 19.752 44.941 19.752C44.045 19.752 43.277 19.9653 42.637 20.392C42.0183 20.7973 41.5383 21.384 41.197 22.152C40.877 22.8987 40.717 23.7947 40.717 24.84V25.064C40.717 26.8133 41.1223 28.1253 41.933 29C42.765 29.8533 43.981 30.28 45.581 30.28C46.1357 30.28 46.7543 30.216 47.437 30.088C48.141 29.9387 48.8023 29.6933 49.421 29.352C49.869 29.096 50.2637 28.9893 50.605 29.032C50.9463 29.0533 51.213 29.1707 51.405 29.384C51.6183 29.5973 51.7463 29.864 51.789 30.184C51.8317 30.4827 51.7677 30.792 51.597 31.112C51.4477 31.432 51.181 31.7093 50.797 31.944C50.0503 32.4133 49.1863 32.7653 48.205 33C47.245 33.2133 46.349 33.32 45.517 33.32ZM65.7728 33.32C64.4501 33.32 63.2874 32.9893 62.2848 32.328C61.3034 31.6667 60.6528 30.7813 60.3328 29.672L60.6848 28.872V31.208C60.6848 31.8693 60.5141 32.3813 60.1728 32.744C59.8314 33.0853 59.3514 33.256 58.7328 33.256C58.0928 33.256 57.6021 33.0853 57.2608 32.744C56.9194 32.3813 56.7488 31.8693 56.7488 31.208V12.2C56.7488 11.5387 56.9194 11.0373 57.2608 10.696C57.6021 10.3547 58.0928 10.184 58.7328 10.184C59.3728 10.184 59.8634 10.3547 60.2048 10.696C60.5674 11.0373 60.7488 11.5387 60.7488 12.2V20.52H60.3648C60.7061 19.4747 61.3674 18.632 62.3488 17.992C63.3301 17.352 64.4714 17.032 65.7728 17.032C67.1594 17.032 68.3648 17.3627 69.3888 18.024C70.4128 18.6853 71.2128 19.624 71.7888 20.84C72.3648 22.0347 72.6528 23.4747 72.6528 25.16C72.6528 26.824 72.3648 28.2747 71.7888 29.512C71.2128 30.728 70.4021 31.6667 69.3568 32.328C68.3328 32.9893 67.1381 33.32 65.7728 33.32ZM64.6528 30.28C65.4421 30.28 66.1354 30.088 66.7328 29.704C67.3301 29.32 67.7888 28.7547 68.1088 28.008C68.4501 27.24 68.6208 26.2907 68.6208 25.16C68.6208 23.4533 68.2581 22.184 67.5328 21.352C66.8074 20.4987 65.8474 20.072 64.6528 20.072C63.8634 20.072 63.1701 20.264 62.5728 20.648C61.9754 21.0107 61.5061 21.576 61.1648 22.344C60.8448 23.0907 60.6848 24.0293 60.6848 25.16C60.6848 26.8453 61.0474 28.1253 61.7728 29C62.4981 29.8533 63.4581 30.28 64.6528 30.28ZM88.6723 33.256C88.0323 33.256 87.5309 33.0853 87.1683 32.744C86.8056 32.3813 86.6243 31.8693 86.6243 31.208V28.712H78.7203C78.0589 28.712 77.5256 28.5733 77.1203 28.296C76.7363 28.0187 76.5443 27.5813 76.5443 26.984C76.5443 26.6427 76.6296 26.2693 76.8003 25.864C76.9923 25.4587 77.3229 24.9253 77.7923 24.264L86.5603 11.56C86.8589 11.112 87.1896 10.7707 87.5523 10.536C87.9149 10.3013 88.3309 10.184 88.8003 10.184C89.3549 10.184 89.8136 10.3547 90.1763 10.696C90.5389 11.016 90.7203 11.528 90.7203 12.232V25.32H92.2883C92.9069 25.32 93.3656 25.4693 93.6643 25.768C93.9843 26.0453 94.1443 26.4613 94.1443 27.016C94.1443 27.5707 93.9843 27.9973 93.6643 28.296C93.3656 28.5733 92.9069 28.712 92.2883 28.712H90.7203V31.208C90.7203 31.8693 90.5389 32.3813 90.1763 32.744C89.8136 33.0853 89.3123 33.256 88.6723 33.256ZM86.6243 25.32V15.336H87.5523L80.0003 26.408V25.32H86.6243ZM97.7158 33.224C97.1184 33.2453 96.6491 33.0853 96.3078 32.744C95.9664 32.4027 95.7958 31.9653 95.7958 31.432C95.7958 31.0267 95.9238 30.6747 96.1798 30.376C96.4144 30.056 96.7664 29.8853 97.2358 29.864L98.1958 29.8C99.1344 29.736 99.8384 29.448 100.308 28.936C100.798 28.4027 101.044 27.6453 101.044 26.664V12.264C101.044 11.5813 101.214 11.0693 101.556 10.728C101.918 10.3653 102.43 10.184 103.092 10.184C103.753 10.184 104.254 10.3653 104.596 10.728C104.958 11.0693 105.14 11.5813 105.14 12.264V26.632C105.14 27.976 104.894 29.1173 104.404 30.056C103.934 30.9947 103.23 31.7307 102.292 32.264C101.353 32.776 100.19 33.0747 98.8038 33.16L97.7158 33.224ZM118.372 33.32C116.751 33.32 115.343 32.9893 114.148 32.328C112.954 31.6667 112.026 30.728 111.364 29.512C110.703 28.2747 110.372 26.824 110.372 25.16C110.372 23.9013 110.554 22.7813 110.916 21.8C111.3 20.7973 111.844 19.944 112.548 19.24C113.252 18.5147 114.095 17.9707 115.076 17.608C116.058 17.224 117.156 17.032 118.372 17.032C119.994 17.032 121.402 17.3627 122.596 18.024C123.791 18.6853 124.719 19.624 125.38 20.84C126.042 22.056 126.372 23.496 126.372 25.16C126.372 26.4187 126.18 27.5493 125.796 28.552C125.434 29.5547 124.9 30.4187 124.196 31.144C123.492 31.848 122.65 32.392 121.668 32.776C120.687 33.1387 119.588 33.32 118.372 33.32ZM118.372 30.28C119.162 30.28 119.855 30.088 120.452 29.704C121.05 29.32 121.508 28.7547 121.828 28.008C122.17 27.24 122.34 26.2907 122.34 25.16C122.34 23.4533 121.978 22.184 121.252 21.352C120.527 20.4987 119.567 20.072 118.372 20.072C117.583 20.072 116.89 20.264 116.292 20.648C115.695 21.0107 115.226 21.576 114.884 22.344C114.564 23.0907 114.404 24.0293 114.404 25.16C114.404 26.8453 114.767 28.1253 115.492 29C116.218 29.8533 117.178 30.28 118.372 30.28ZM140.298 33.32C138.975 33.32 137.812 32.9893 136.81 32.328C135.828 31.6667 135.178 30.7813 134.858 29.672L135.21 28.872V31.208C135.21 31.8693 135.039 32.3813 134.698 32.744C134.356 33.0853 133.876 33.256 133.258 33.256C132.618 33.256 132.127 33.0853 131.786 32.744C131.444 32.3813 131.274 31.8693 131.274 31.208V12.2C131.274 11.5387 131.444 11.0373 131.786 10.696C132.127 10.3547 132.618 10.184 133.258 10.184C133.898 10.184 134.388 10.3547 134.73 10.696C135.092 11.0373 135.274 11.5387 135.274 12.2V20.52H134.89C135.231 19.4747 135.892 18.632 136.874 17.992C137.855 17.352 138.996 17.032 140.298 17.032C141.684 17.032 142.89 17.3627 143.914 18.024C144.938 18.6853 145.738 19.624 146.314 20.84C146.89 22.0347 147.178 23.4747 147.178 25.16C147.178 26.824 146.89 28.2747 146.314 29.512C145.738 30.728 144.927 31.6667 143.882 32.328C142.858 32.9893 141.663 33.32 140.298 33.32ZM139.178 30.28C139.967 30.28 140.66 30.088 141.258 29.704C141.855 29.32 142.314 28.7547 142.634 28.008C142.975 27.24 143.146 26.2907 143.146 25.16C143.146 23.4533 142.783 22.184 142.058 21.352C141.332 20.4987 140.372 20.072 139.178 20.072C138.388 20.072 137.695 20.264 137.098 20.648C136.5 21.0107 136.031 21.576 135.69 22.344C135.37 23.0907 135.21 24.0293 135.21 25.16C135.21 26.8453 135.572 28.1253 136.298 29C137.023 29.8533 137.983 30.28 139.178 30.28ZM157.789 33.32C156.872 33.32 155.901 33.224 154.877 33.032C153.853 32.84 152.936 32.5093 152.125 32.04C151.784 31.8267 151.539 31.5813 151.389 31.304C151.261 31.0053 151.208 30.7173 151.229 30.44C151.272 30.1413 151.379 29.8853 151.549 29.672C151.741 29.4587 151.976 29.32 152.253 29.256C152.552 29.192 152.872 29.2453 153.213 29.416C154.067 29.8213 154.867 30.1093 155.613 30.28C156.36 30.4293 157.096 30.504 157.821 30.504C158.845 30.504 159.603 30.3333 160.093 29.992C160.605 29.6293 160.861 29.16 160.861 28.584C160.861 28.0933 160.691 27.72 160.349 27.464C160.029 27.1867 159.539 26.984 158.877 26.856L155.677 26.248C154.355 25.992 153.341 25.512 152.637 24.808C151.955 24.0827 151.613 23.1547 151.613 22.024C151.613 21 151.891 20.1147 152.445 19.368C153.021 18.6213 153.811 18.0453 154.813 17.64C155.816 17.2347 156.968 17.032 158.269 17.032C159.208 17.032 160.083 17.1387 160.893 17.352C161.725 17.544 162.525 17.8533 163.293 18.28C163.613 18.4507 163.827 18.6747 163.933 18.952C164.061 19.2293 164.093 19.5173 164.029 19.816C163.965 20.0933 163.837 20.3493 163.645 20.584C163.453 20.7973 163.208 20.936 162.909 21C162.632 21.0427 162.312 20.9787 161.949 20.808C161.288 20.4667 160.648 20.2213 160.029 20.072C159.432 19.9227 158.856 19.848 158.301 19.848C157.256 19.848 156.477 20.0293 155.965 20.392C155.475 20.7547 155.229 21.2347 155.229 21.832C155.229 22.28 155.379 22.6533 155.677 22.952C155.976 23.2507 156.435 23.4533 157.053 23.56L160.253 24.168C161.64 24.424 162.685 24.8933 163.389 25.576C164.115 26.2587 164.477 27.176 164.477 28.328C164.477 29.8853 163.869 31.112 162.653 32.008C161.437 32.8827 159.816 33.32 157.789 33.32Z" fill="#D500F9"/>
<path d="M41.9169 60C41.5649 60 41.2929 59.9093 41.1009 59.728C40.9195 59.536 40.8289 59.264 40.8289 58.912V49.808C40.8289 49.456 40.9195 49.1893 41.1009 49.008C41.2929 48.816 41.5649 48.72 41.9169 48.72H45.7569C46.5462 48.72 47.2182 48.8373 47.7729 49.072C48.3275 49.3067 48.7489 49.6427 49.0369 50.08C49.3355 50.5173 49.4849 51.04 49.4849 51.648C49.4849 52.3307 49.2875 52.9067 48.8929 53.376C48.4982 53.8453 47.9595 54.16 47.2769 54.32V54.08C48.0662 54.1973 48.6795 54.496 49.1169 54.976C49.5542 55.456 49.7729 56.08 49.7729 56.848C49.7729 57.8507 49.4315 58.6293 48.7489 59.184C48.0769 59.728 47.1382 60 45.9329 60H41.9169ZM42.7969 58.448H45.6769C46.4022 58.448 46.9355 58.3093 47.2769 58.032C47.6182 57.744 47.7889 57.3173 47.7889 56.752C47.7889 56.176 47.6182 55.7493 47.2769 55.472C46.9355 55.1947 46.4022 55.056 45.6769 55.056H42.7969V58.448ZM42.7969 53.504H45.4049C46.1089 53.504 46.6315 53.3707 46.9729 53.104C47.3249 52.8267 47.5009 52.4213 47.5009 51.888C47.5009 51.3547 47.3249 50.9547 46.9729 50.688C46.6315 50.4107 46.1089 50.272 45.4049 50.272H42.7969V53.504ZM54.4365 63.008C54.2018 63.008 54.0098 62.944 53.8605 62.816C53.7112 62.6987 53.6205 62.5387 53.5885 62.336C53.5672 62.1333 53.6045 61.92 53.7005 61.696L54.7885 59.28V60.112L51.8765 53.376C51.7805 53.1413 51.7485 52.9227 51.7805 52.72C51.8125 52.5173 51.9085 52.3573 52.0685 52.24C52.2392 52.112 52.4685 52.048 52.7565 52.048C53.0018 52.048 53.1992 52.1067 53.3485 52.224C53.4978 52.3307 53.6312 52.5387 53.7485 52.848L55.9085 58.24H55.4285L57.6365 52.832C57.7538 52.5333 57.8925 52.3307 58.0525 52.224C58.2125 52.1067 58.4258 52.048 58.6925 52.048C58.9272 52.048 59.1138 52.112 59.2525 52.24C59.3912 52.3573 59.4765 52.5173 59.5085 52.72C59.5405 52.912 59.5032 53.1253 59.3965 53.36L55.5085 62.24C55.3698 62.5387 55.2205 62.7413 55.0605 62.848C54.9005 62.9547 54.6925 63.008 54.4365 63.008ZM76.3861 61.808C76.5355 62.0427 76.5941 62.256 76.5621 62.448C76.5301 62.64 76.4448 62.8 76.3061 62.928C76.1675 63.0667 75.9968 63.152 75.7941 63.184C75.5915 63.2267 75.3888 63.2053 75.1861 63.12C74.9835 63.0453 74.8128 62.896 74.6741 62.672L73.5701 60.896C73.4208 60.6507 73.2181 60.464 72.9621 60.336C72.7168 60.2187 72.4128 60.16 72.0501 60.16L73.6341 59.536C74.1355 59.536 74.5355 59.6267 74.8341 59.808C75.1328 59.9787 75.4208 60.2827 75.6981 60.72L76.3861 61.808ZM72.0661 60.16C70.9781 60.16 70.0235 59.92 69.2021 59.44C68.3915 58.96 67.7621 58.288 67.3141 57.424C66.8661 56.5493 66.6421 55.5253 66.6421 54.352C66.6421 53.4667 66.7701 52.672 67.0261 51.968C67.2821 51.2533 67.6448 50.6453 68.1141 50.144C68.5941 49.632 69.1648 49.2427 69.8261 48.976C70.4981 48.6987 71.2448 48.56 72.0661 48.56C73.1648 48.56 74.1195 48.8 74.9301 49.28C75.7408 49.7493 76.3701 50.416 76.8181 51.28C77.2661 52.144 77.4901 53.1627 77.4901 54.336C77.4901 55.2213 77.3621 56.0213 77.1061 56.736C76.8501 57.4507 76.4821 58.064 76.0021 58.576C75.5328 59.088 74.9621 59.4827 74.2901 59.76C73.6288 60.0267 72.8875 60.16 72.0661 60.16ZM72.0661 58.4C72.7595 58.4 73.3461 58.24 73.8261 57.92C74.3168 57.6 74.6901 57.136 74.9461 56.528C75.2128 55.92 75.3461 55.1947 75.3461 54.352C75.3461 53.072 75.0581 52.08 74.4821 51.376C73.9168 50.672 73.1115 50.32 72.0661 50.32C71.3835 50.32 70.7968 50.48 70.3061 50.8C69.8155 51.1093 69.4368 51.568 69.1701 52.176C68.9141 52.7733 68.7861 53.4987 68.7861 54.352C68.7861 55.6213 69.0741 56.6133 69.6501 57.328C70.2261 58.0427 71.0315 58.4 72.0661 58.4ZM83.2046 60.128C82.938 60.128 82.7086 60.064 82.5166 59.936C82.3246 59.7973 82.17 59.584 82.0526 59.296L79.7326 53.376C79.6366 53.12 79.6046 52.896 79.6366 52.704C79.6793 52.5013 79.7806 52.3413 79.9406 52.224C80.1006 52.1067 80.314 52.048 80.5806 52.048C80.8153 52.048 81.0073 52.1067 81.1566 52.224C81.306 52.3307 81.434 52.5387 81.5406 52.848L83.4766 58.176H83.1086L85.1086 52.72C85.194 52.4853 85.306 52.3147 85.4446 52.208C85.594 52.1013 85.786 52.048 86.0206 52.048C86.2553 52.048 86.4473 52.1067 86.5966 52.224C86.746 52.3307 86.858 52.496 86.9326 52.72L88.9006 58.176H88.5646L90.5166 52.8C90.6233 52.512 90.7566 52.3147 90.9166 52.208C91.0873 52.1013 91.274 52.048 91.4766 52.048C91.7326 52.048 91.93 52.112 92.0686 52.24C92.2073 52.368 92.2873 52.5333 92.3086 52.736C92.33 52.928 92.2926 53.1413 92.1966 53.376L89.8926 59.296C89.786 59.5733 89.6313 59.7813 89.4286 59.92C89.2366 60.0587 89.0073 60.128 88.7406 60.128C88.474 60.128 88.2393 60.0587 88.0366 59.92C87.8446 59.7813 87.6953 59.5733 87.5886 59.296L85.4926 53.744H86.4046L84.3566 59.28C84.25 59.568 84.1006 59.7813 83.9086 59.92C83.7166 60.0587 83.482 60.128 83.2046 60.128ZM97.041 60.16C96.4757 60.16 95.969 60.0533 95.521 59.84C95.0837 59.616 94.737 59.3173 94.481 58.944C94.2357 58.5707 94.113 58.1493 94.113 57.68C94.113 57.104 94.2623 56.6507 94.561 56.32C94.8597 55.9787 95.345 55.7333 96.017 55.584C96.689 55.4347 97.5903 55.36 98.721 55.36H99.521V56.512H98.737C98.0757 56.512 97.5477 56.544 97.153 56.608C96.7583 56.672 96.4757 56.784 96.305 56.944C96.145 57.0933 96.065 57.3067 96.065 57.584C96.065 57.936 96.1877 58.224 96.433 58.448C96.6783 58.672 97.0197 58.784 97.457 58.784C97.809 58.784 98.1183 58.704 98.385 58.544C98.6623 58.3733 98.881 58.144 99.041 57.856C99.201 57.568 99.281 57.2373 99.281 56.864V55.024C99.281 54.4907 99.1637 54.1067 98.929 53.872C98.6943 53.6373 98.2997 53.52 97.745 53.52C97.4357 53.52 97.0997 53.5573 96.737 53.632C96.385 53.7067 96.0117 53.8347 95.617 54.016C95.4143 54.112 95.233 54.1387 95.073 54.096C94.9237 54.0533 94.8063 53.968 94.721 53.84C94.6357 53.7013 94.593 53.552 94.593 53.392C94.593 53.232 94.6357 53.0773 94.721 52.928C94.8063 52.768 94.9503 52.6507 95.153 52.576C95.6437 52.3733 96.113 52.2293 96.561 52.144C97.0197 52.0587 97.4357 52.016 97.809 52.016C98.577 52.016 99.2063 52.1333 99.697 52.368C100.198 52.6027 100.572 52.96 100.817 53.44C101.062 53.9093 101.185 54.5173 101.185 55.264V59.104C101.185 59.4347 101.105 59.6907 100.945 59.872C100.785 60.0427 100.556 60.128 100.257 60.128C99.9583 60.128 99.7237 60.0427 99.553 59.872C99.393 59.6907 99.313 59.4347 99.313 59.104V58.336H99.441C99.3663 58.7093 99.217 59.0347 98.993 59.312C98.7797 59.5787 98.5077 59.7867 98.177 59.936C97.8463 60.0853 97.4677 60.16 97.041 60.16ZM106.879 60.16C106.42 60.16 105.935 60.112 105.423 60.016C104.911 59.92 104.452 59.7547 104.047 59.52C103.876 59.4133 103.754 59.2907 103.679 59.152C103.615 59.0027 103.588 58.8587 103.599 58.72C103.62 58.5707 103.674 58.4427 103.759 58.336C103.855 58.2293 103.972 58.16 104.111 58.128C104.26 58.096 104.42 58.1227 104.591 58.208C105.018 58.4107 105.418 58.5547 105.791 58.64C106.164 58.7147 106.532 58.752 106.895 58.752C107.407 58.752 107.786 58.6667 108.031 58.496C108.287 58.3147 108.415 58.08 108.415 57.792C108.415 57.5467 108.33 57.36 108.159 57.232C107.999 57.0933 107.754 56.992 107.423 56.928L105.823 56.624C105.162 56.496 104.655 56.256 104.303 55.904C103.962 55.5413 103.791 55.0773 103.791 54.512C103.791 54 103.93 53.5573 104.207 53.184C104.495 52.8107 104.89 52.5227 105.391 52.32C105.892 52.1173 106.468 52.016 107.119 52.016C107.588 52.016 108.026 52.0693 108.431 52.176C108.847 52.272 109.247 52.4267 109.631 52.64C109.791 52.7253 109.898 52.8373 109.951 52.976C110.015 53.1147 110.031 53.2587 109.999 53.408C109.967 53.5467 109.903 53.6747 109.807 53.792C109.711 53.8987 109.588 53.968 109.439 54C109.3 54.0213 109.14 53.9893 108.959 53.904C108.628 53.7333 108.308 53.6107 107.999 53.536C107.7 53.4613 107.412 53.424 107.135 53.424C106.612 53.424 106.223 53.5147 105.967 53.696C105.722 53.8773 105.599 54.1173 105.599 54.416C105.599 54.64 105.674 54.8267 105.823 54.976C105.972 55.1253 106.202 55.2267 106.511 55.28L108.111 55.584C108.804 55.712 109.327 55.9467 109.679 56.288C110.042 56.6293 110.223 57.088 110.223 57.664C110.223 58.4427 109.919 59.056 109.311 59.504C108.703 59.9413 107.892 60.16 106.879 60.16ZM115.203 60.16C114.638 60.16 114.131 60.0533 113.683 59.84C113.246 59.616 112.899 59.3173 112.643 58.944C112.398 58.5707 112.275 58.1493 112.275 57.68C112.275 57.104 112.425 56.6507 112.723 56.32C113.022 55.9787 113.507 55.7333 114.179 55.584C114.851 55.4347 115.753 55.36 116.883 55.36H117.683V56.512H116.899C116.238 56.512 115.71 56.544 115.315 56.608C114.921 56.672 114.638 56.784 114.467 56.944C114.307 57.0933 114.227 57.3067 114.227 57.584C114.227 57.936 114.35 58.224 114.595 58.448C114.841 58.672 115.182 58.784 115.619 58.784C115.971 58.784 116.281 58.704 116.547 58.544C116.825 58.3733 117.043 58.144 117.203 57.856C117.363 57.568 117.443 57.2373 117.443 56.864V55.024C117.443 54.4907 117.326 54.1067 117.091 53.872C116.857 53.6373 116.462 53.52 115.907 53.52C115.598 53.52 115.262 53.5573 114.899 53.632C114.547 53.7067 114.174 53.8347 113.779 54.016C113.577 54.112 113.395 54.1387 113.235 54.096C113.086 54.0533 112.969 53.968 112.883 53.84C112.798 53.7013 112.755 53.552 112.755 53.392C112.755 53.232 112.798 53.0773 112.883 52.928C112.969 52.768 113.113 52.6507 113.315 52.576C113.806 52.3733 114.275 52.2293 114.723 52.144C115.182 52.0587 115.598 52.016 115.971 52.016C116.739 52.016 117.369 52.1333 117.859 52.368C118.361 52.6027 118.734 52.96 118.979 53.44C119.225 53.9093 119.347 54.5173 119.347 55.264V59.104C119.347 59.4347 119.267 59.6907 119.107 59.872C118.947 60.0427 118.718 60.128 118.419 60.128C118.121 60.128 117.886 60.0427 117.715 59.872C117.555 59.6907 117.475 59.4347 117.475 59.104V58.336H117.603C117.529 58.7093 117.379 59.0347 117.155 59.312C116.942 59.5787 116.67 59.7867 116.339 59.936C116.009 60.0853 115.63 60.16 115.203 60.16ZM123.201 60.128C122.871 60.128 122.615 60.0427 122.433 59.872C122.263 59.6907 122.177 59.4347 122.177 59.104V53.056C122.177 52.7253 122.263 52.4747 122.433 52.304C122.604 52.1333 122.844 52.048 123.153 52.048C123.463 52.048 123.703 52.1333 123.873 52.304C124.044 52.4747 124.129 52.7253 124.129 53.056V54.064H123.969C124.119 53.424 124.412 52.9387 124.849 52.608C125.287 52.2773 125.868 52.08 126.593 52.016C126.817 51.9947 126.993 52.0533 127.121 52.192C127.26 52.32 127.34 52.5227 127.361 52.8C127.383 53.0667 127.319 53.2853 127.169 53.456C127.031 53.616 126.817 53.712 126.529 53.744L126.177 53.776C125.527 53.84 125.036 54.0427 124.705 54.384C124.375 54.7147 124.209 55.184 124.209 55.792V59.104C124.209 59.4347 124.124 59.6907 123.953 59.872C123.783 60.0427 123.532 60.128 123.201 60.128Z" fill="white"/>
</svg>
