<svg width="24" height="20" viewBox="0 0 24 20" fill="none" xmlns="http://www.w3.org/2000/svg">
<path d="M22.8687 2.38482C22.5197 2.38482 22.2373 2.66715 22.2373 3.01615V17.0502C22.2368 17.557 21.8273 17.9652 21.3223 17.9658H2.67768C2.17271 17.9652 1.76329 17.557 1.76271 17.0502V3.02131C1.76271 2.70116 2.08805 2.48377 2.38383 2.60629L3.28561 2.97981C3.43906 3.04333 3.61542 3.04333 3.76896 2.97981L5.752 2.15881C5.86205 2.11325 5.98568 2.11326 6.09572 2.15883L8.0781 2.97981C8.23159 3.04333 8.40791 3.04333 8.56145 2.97981L10.5431 2.15888C10.6532 2.11328 10.7769 2.11328 10.887 2.15887L12.8687 2.97981C13.0222 3.04333 13.198 3.04333 13.3515 2.97981L15.3365 2.15866C15.4464 2.11319 15.5699 2.11317 15.6798 2.15861L17.6668 2.97981C17.8203 3.04333 17.9954 3.04333 18.149 2.97981L19.0553 2.60513C19.351 2.48287 19.6761 2.70026 19.6761 3.02027V15.6531C19.6761 16.0021 19.9585 16.2845 20.3074 16.2845C20.6564 16.2845 20.9388 16.0021 20.9388 15.6531V1.40444C20.9388 1.19362 20.834 0.99691 20.6583 0.879798C20.4831 0.762058 20.2612 0.739822 20.0664 0.82122L18.0794 1.64245C17.9695 1.68787 17.8461 1.68787 17.7362 1.64245L15.7493 0.82122C15.5957 0.757162 15.4206 0.757162 15.2671 0.82122L13.2821 1.64175C13.1721 1.68721 13.0486 1.68718 12.9387 1.64166L10.9568 0.82122C10.8032 0.757162 10.6269 0.757162 10.4733 0.82122L8.49148 1.64162C8.38148 1.68716 8.25789 1.68717 8.14788 1.64164L6.16555 0.82122C6.01137 0.757162 5.83564 0.757162 5.68219 0.82122L3.69904 1.64168C3.58906 1.68718 3.46551 1.68718 3.35553 1.64166L1.37301 0.82122C1.17756 0.740451 0.956182 0.762058 0.780492 0.879169C0.604803 0.99691 0.5 1.19362 0.5 1.40444V17.0502C0.5 18.2537 1.47476 19.2279 2.67768 19.2285H21.3223C22.5252 19.2279 23.5 18.2537 23.5 17.0502V3.01619C23.5 2.66715 23.217 2.38482 22.8687 2.38482Z" fill="white"/>
<path d="M4.5957 5.99219C4.34761 5.99219 4.14648 6.19331 4.14648 6.44141V11.1857C4.14648 11.4338 4.34761 11.6349 4.5957 11.6349H9.57183C9.81993 11.6349 10.0211 11.4338 10.0211 11.1857V6.44141C10.0211 6.19331 9.81993 5.99219 9.57183 5.99219H4.5957ZM9.01112 10.1758C9.01112 10.4239 8.81 10.625 8.5619 10.625H5.60559C5.3575 10.625 5.15637 10.4239 5.15637 10.1758V7.45134C5.15637 7.20324 5.3575 7.00212 5.60559 7.00212H8.5619C8.81 7.00212 9.01112 7.20324 9.01112 7.45134V10.1758Z" fill="white"/>
<path d="M16.7667 5.9837H12.6445C12.3964 5.9837 12.1953 6.18483 12.1953 6.43292V6.54442C12.1953 6.79252 12.3964 6.99364 12.6445 6.99364H16.7667C17.0148 6.99364 17.2159 6.79252 17.2159 6.54442V6.43292C17.2159 6.18483 17.0148 5.9837 16.7667 5.9837Z" fill="white"/>
<path d="M16.7667 8.50537H12.6445C12.3964 8.50537 12.1953 8.70649 12.1953 8.95459V9.06609C12.1953 9.31418 12.3964 9.5153 12.6445 9.5153H16.7667C17.0148 9.5153 17.2159 9.31418 17.2159 9.06609V8.95459C17.2159 8.70649 17.0148 8.50537 16.7667 8.50537Z" fill="white"/>
<path d="M16.7667 11.0247H12.6445C12.3964 11.0247 12.1953 11.2258 12.1953 11.4739V11.5854C12.1953 11.8335 12.3964 12.0346 12.6445 12.0346H16.7667C17.0148 12.0346 17.2159 11.8335 17.2159 11.5854V11.4739C17.2159 11.2258 17.0148 11.0247 16.7667 11.0247Z" fill="white"/>
<path d="M16.7658 13.5464H4.5957C4.34761 13.5464 4.14648 13.7475 4.14648 13.9956V14.1071C4.14648 14.3552 4.34761 14.5563 4.5957 14.5563H16.7658C17.0139 14.5563 17.215 14.3552 17.215 14.1071V13.9956C17.215 13.7475 17.0139 13.5464 16.7658 13.5464Z" fill="white"/>
</svg>
