<svg width="17" height="20" viewBox="0 0 17 20" fill="none" xmlns="http://www.w3.org/2000/svg">
<path fill-rule="evenodd" clip-rule="evenodd" d="M16.4224 0.707275C16.7414 0.707275 17 0.965853 17 1.28482V19.3814C17 19.7003 16.7414 19.9589 16.4224 19.9589H1.71088C1.39191 19.9589 1.13333 19.7003 1.13333 19.3814V16.1216C1.13333 15.8086 0.879627 15.5549 0.56667 15.5549C0.253871 15.5549 0 15.3013 0 14.9887C0 14.6762 0.253871 14.4225 0.56667 14.4225C0.879627 14.4225 1.13333 14.1688 1.13333 13.8558V11.5918C1.13333 11.2788 0.879627 11.0251 0.56667 11.0251C0.253871 11.0251 0 10.7715 0 10.4589C0 10.1464 0.253871 9.8927 0.56667 9.8927C0.879627 9.8927 1.13333 9.639 1.13333 9.32604V7.062C1.13333 6.74904 0.879627 6.49534 0.56667 6.49534C0.253871 6.49534 0 6.24167 0 5.92912C0 5.61656 0.253871 5.36289 0.56667 5.36289C0.879627 5.36289 1.13333 5.10919 1.13333 4.79623V1.28483C1.13333 0.965854 1.39191 0.707275 1.71088 0.707275H16.4224ZM15.8667 1.83972C15.8667 1.83972 15.8667 1.83972 15.8666 1.83972H2.84422C2.52525 1.83972 2.26667 2.0983 2.26667 2.41727V4.79623C2.26667 5.10919 2.52038 5.3629 2.83334 5.3629C3.14614 5.3629 3.4 5.61657 3.4 5.92912C3.4 6.24168 3.14614 6.49534 2.83334 6.49534C2.52038 6.49534 2.26667 6.74904 2.26667 7.06201V9.32602C2.26667 9.63898 2.52038 9.89269 2.83334 9.89269C3.14614 9.89269 3.4 10.1464 3.4 10.4589C3.4 10.7715 3.14614 11.0251 2.83334 11.0251C2.52038 11.0251 2.26667 11.2788 2.26667 11.5918V13.8558C2.26667 14.1688 2.52038 14.4225 2.83334 14.4225C3.14614 14.4225 3.4 14.6762 3.4 14.9887C3.4 15.3013 3.14614 15.5549 2.83334 15.5549C2.52038 15.5549 2.26667 15.8086 2.26667 16.1216V18.2489C2.26667 18.5679 2.52525 18.8265 2.84422 18.8265H15.2891C15.6081 18.8265 15.8667 18.5679 15.8667 18.2489V1.83973C15.8667 1.83972 15.8667 1.83972 15.8667 1.83972ZM5.35724 5.53693C5.35724 5.22422 5.61075 4.97072 5.92346 4.97072H12.2973C12.61 4.97072 12.8635 5.22422 12.8635 5.53694C12.8635 5.84965 12.61 6.10316 12.2973 6.10316H5.92346C5.61074 6.10316 5.35724 5.84965 5.35724 5.53693ZM5.35724 7.69101C5.35724 7.3783 5.61075 7.12479 5.92346 7.12479H11.2026C11.5153 7.12479 11.7688 7.3783 11.7688 7.69101C11.7688 8.00373 11.5153 8.25723 11.2026 8.25723H5.92346C5.61075 8.25723 5.35724 8.00372 5.35724 7.69101ZM5.35724 13.0538C5.35724 12.7411 5.61075 12.4876 5.92346 12.4876H12.2973C12.61 12.4876 12.8635 12.7411 12.8635 13.0538C12.8635 13.3666 12.61 13.6201 12.2973 13.6201H5.92346C5.61074 13.6201 5.35724 13.3666 5.35724 13.0538ZM5.35724 15.2079C5.35724 14.8952 5.61075 14.6417 5.92346 14.6417H11.2026C11.5153 14.6417 11.7688 14.8952 11.7688 15.2079C11.7688 15.5206 11.5153 15.7741 11.2026 15.7741H5.92346C5.61075 15.7741 5.35724 15.5206 5.35724 15.2079Z" fill="white"/>
</svg>
