<svg width="19" height="23" viewBox="0 0 19 23" fill="none" xmlns="http://www.w3.org/2000/svg">
<path d="M4.73047 11.001C4.73047 10.6989 4.97539 10.454 5.27753 10.454H13.7414C14.0435 10.454 14.2885 10.6989 14.2885 11.001C14.2885 11.3032 14.0435 11.5481 13.7414 11.5481H5.27752C4.97539 11.5481 4.73047 11.3032 4.73047 11.001ZM4.73047 15.8151C4.73047 15.513 4.97539 15.2681 5.27753 15.2681H10.0334C10.3355 15.2681 10.5805 15.513 10.5805 15.8151C10.5805 16.1173 10.3355 16.3622 10.0334 16.3622H5.27752C4.97539 16.3622 4.73047 16.1173 4.73047 15.8151Z" fill="white"/>
<path d="M16.394 22.2888H2.606C2.318 22.2888 2.048 22.2341 1.778 22.1247C1.526 22.0153 1.292 21.8694 1.112 21.6688C0.914 21.4683 0.77 21.2494 0.662 20.9941C0.554 20.7206 0.5 20.4471 0.5 20.1553V5.62185C0.5 5.33008 0.554 5.05656 0.662 4.78303C0.77 4.52774 0.914 4.29068 1.112 4.10833C1.31 3.90774 1.526 3.76186 1.778 3.65244C2.048 3.54303 2.318 3.48833 2.606 3.48833H4.15606C4.45316 3.48833 4.694 3.72917 4.694 4.02627C4.694 4.32336 4.45316 4.56421 4.15606 4.56421H2.606C2.03 4.56421 1.544 5.03832 1.544 5.64008V20.1736C1.544 20.7571 2.012 21.2494 2.606 21.2494H16.376C16.952 21.2494 17.438 20.7753 17.438 20.1736V5.62185C17.438 5.03832 16.97 4.54597 16.376 4.54597H14.8439C14.5468 4.54597 14.306 4.30513 14.306 4.00803C14.306 3.71094 14.5468 3.47009 14.8439 3.47009H16.394C16.682 3.47009 16.952 3.5248 17.222 3.63421C17.474 3.74362 17.708 3.8895 17.888 4.09009C18.086 4.29068 18.23 4.5095 18.338 4.76479C18.446 5.03832 18.5 5.31185 18.5 5.60361V20.1371C18.5 20.4288 18.446 20.7024 18.338 20.9759C18.23 21.2312 18.086 21.4683 17.888 21.6506C17.69 21.8512 17.474 21.9971 17.222 22.1065C16.952 22.2341 16.682 22.2888 16.394 22.2888Z" fill="white"/>
<path d="M14.827 3.19585C14.8071 5.13529 13.2292 6.69701 11.2897 6.69701H7.70819C5.77455 6.69701 4.20703 5.12949 4.20703 3.19585C4.20703 2.44821 4.80103 1.84645 5.53903 1.84645C6.37671 1.84645 7.10301 1.30608 7.77366 0.804151C8.26597 0.435701 8.87355 0.223511 9.51703 0.223511C10.1605 0.223511 10.7681 0.435701 11.2604 0.804151C11.931 1.30607 12.6574 1.84645 13.495 1.84645C14.233 1.84645 14.827 2.44821 14.827 3.19585ZM5.26903 5.62113H11.3217C12.6612 5.62113 13.747 4.5353 13.747 3.19585C13.747 3.04997 13.621 2.92232 13.477 2.92232H11.7569C11.526 2.92232 11.3204 2.77589 11.245 2.55762C10.993 1.80997 10.291 1.29939 9.49903 1.29939C8.70703 1.29939 8.00503 1.80997 7.75303 2.55762C7.67762 2.77589 7.4721 2.92232 7.24117 2.92232H5.52103C5.37703 2.92232 5.25103 3.04997 5.25103 3.19585V5.60314C5.25103 5.61308 5.25909 5.62113 5.26903 5.62113Z" fill="white"/>
</svg>
