<svg width="23" height="25" viewBox="0 0 23 25" fill="none" xmlns="http://www.w3.org/2000/svg">
<path d="M11.4992 16.2835C13.3444 16.2835 14.8403 14.7877 14.8403 12.9425C14.8403 11.0973 13.3444 9.60144 11.4992 9.60144C9.65404 9.60144 8.1582 11.0973 8.1582 12.9425C8.1582 14.7877 9.65404 16.2835 11.4992 16.2835Z" stroke="white" stroke-width="1.67052"/>
<path d="M13.4661 1.97497C13.0567 1.80542 12.5378 1.80542 11.5 1.80542C10.4622 1.80542 9.94331 1.80542 9.53392 1.97497C8.98818 2.20103 8.55457 2.63464 8.32851 3.1804C8.22531 3.42954 8.18492 3.71928 8.16912 4.14191C8.1459 4.76299 7.82739 5.33789 7.28912 5.64865C6.75088 5.9594 6.09376 5.94779 5.54427 5.65737C5.17036 5.45973 4.89925 5.34984 4.63188 5.31464C4.0462 5.23753 3.45388 5.39624 2.98522 5.75586C2.63372 6.02557 2.37427 6.47496 1.85536 7.37374C1.33645 8.27252 1.077 8.7219 1.01917 9.16117C0.942066 9.74684 1.10078 10.3392 1.46039 10.8078C1.62453 11.0218 1.85522 11.2015 2.21325 11.4265C2.73959 11.7573 3.07825 12.3207 3.07821 12.9422C3.07818 13.5638 2.73953 14.1271 2.21324 14.4577C1.85516 14.6828 1.62444 14.8626 1.46028 15.0766C1.10067 15.5452 0.941955 16.1375 1.01907 16.7231C1.07689 17.1624 1.33634 17.6119 1.85525 18.5106C2.37417 19.4093 2.63362 19.8588 2.98511 20.1284C3.45377 20.488 4.04609 20.6467 4.63177 20.5697C4.89911 20.5345 5.17021 20.4246 5.5441 20.227C6.09362 19.9366 6.75079 19.925 7.28908 20.2357C7.82736 20.5465 8.1459 21.1214 8.16912 21.7426C8.18493 22.1651 8.22531 22.4549 8.32851 22.704C8.55457 23.2498 8.98818 23.6834 9.53392 23.9095C9.94331 24.079 10.4622 24.079 11.5 24.079C12.5378 24.079 13.0567 24.079 13.4661 23.9095C14.0118 23.6834 14.4455 23.2498 14.6714 22.704C14.7747 22.4549 14.8151 22.1651 14.8309 21.7425C14.8541 21.1214 15.1726 20.5465 15.7108 20.2357C16.2491 19.9249 16.9063 19.9366 17.4559 20.227C17.8297 20.4246 18.1008 20.5344 18.3681 20.5696C18.9537 20.6468 19.5461 20.488 20.0148 20.1284C20.3662 19.8587 20.6257 19.4093 21.1446 18.5105C21.6636 17.6118 21.923 17.1624 21.9808 16.7231C22.0579 16.1375 21.8992 15.5451 21.5396 15.0765C21.3754 14.8625 21.1447 14.6827 20.7866 14.4577C20.2604 14.1271 19.9218 13.5636 19.9218 12.9421C19.9218 12.3206 20.2604 11.7574 20.7866 11.4267C21.1448 11.2016 21.3756 11.0219 21.5397 10.8078C21.8993 10.3392 22.058 9.74692 21.981 9.16124C21.9232 8.72198 21.6637 8.27259 21.1447 7.37381C20.6258 6.47504 20.3663 6.02565 20.0149 5.75594C19.5462 5.39632 18.9539 5.23761 18.3682 5.31472C18.1009 5.34991 17.8298 5.4598 17.4559 5.65741C16.9064 5.94785 16.2492 5.95946 15.7109 5.64868C15.1726 5.33791 14.8541 4.76297 14.8309 4.14185C14.8151 3.71925 14.7747 3.42953 14.6714 3.1804C14.4455 2.63464 14.0118 2.20103 13.4661 1.97497Z" stroke="white" stroke-width="1.67052"/>
</svg>
