<svg width="19" height="20" viewBox="0 0 19 20" fill="none" xmlns="http://www.w3.org/2000/svg">
<path d="M6.24312 19.1449H2.98686C2.61048 19.1609 2.23463 19.1025 1.88083 18.9731C1.52702 18.8438 1.20221 18.6459 0.924973 18.3908C0.647724 18.1357 0.423498 17.8285 0.265124 17.4867C0.10674 17.1449 0.0173118 16.7752 0.00195312 16.3987V2.89616C0.0173118 2.51976 0.10674 2.15007 0.265124 1.80826C0.423498 1.46645 0.647724 1.15922 0.924973 0.904156C1.20221 0.649093 1.52702 0.4512 1.88083 0.321807C2.23463 0.192403 2.61048 0.13404 2.98686 0.15005H6.24312C6.45902 0.15005 6.66608 0.23582 6.81875 0.388484C6.97141 0.541159 7.05718 0.748214 7.05718 0.964115C7.05718 1.18003 6.97141 1.38708 6.81875 1.53975C6.66608 1.69242 6.45902 1.77818 6.24312 1.77818H2.98686C2.66456 1.75015 2.34386 1.84727 2.09125 2.04935C1.83862 2.25144 1.67349 2.54302 1.63008 2.8636V16.3987C1.67349 16.7194 1.83862 17.0109 2.09125 17.213C2.34386 17.4151 2.66456 17.5123 2.98686 17.4842H6.24312C6.45902 17.4842 6.66608 17.57 6.81875 17.7226C6.97141 17.8753 7.05718 18.0823 7.05718 18.2982C7.05718 18.5142 6.97141 18.7212 6.81875 18.8739C6.66608 19.0265 6.45902 19.1123 6.24312 19.1123V19.1449Z" fill="white"/>
<path d="M13.8422 14.8019C13.7353 14.8024 13.6292 14.7816 13.5305 14.7405C13.4317 14.6995 13.342 14.6392 13.2669 14.5631C13.1145 14.4105 13.0289 14.2036 13.0289 13.9878C13.0289 13.7721 13.1145 13.5651 13.2669 13.4125L17.0333 9.64613L13.2669 5.87974C13.1869 5.80521 13.1228 5.71534 13.0783 5.61548C13.0338 5.51562 13.0099 5.40782 13.0079 5.29851C13.006 5.18921 13.0262 5.08064 13.0671 4.97927C13.108 4.8779 13.1689 4.78583 13.2463 4.70852C13.3236 4.63122 13.4156 4.57028 13.517 4.52934C13.6184 4.4884 13.7269 4.46829 13.8362 4.47022C13.9455 4.47214 14.0533 4.49607 14.1532 4.54057C14.253 4.58506 14.3429 4.64921 14.4175 4.72919L18.7591 9.07086C18.9116 9.22347 18.9972 9.43046 18.9972 9.64613C18.9972 9.86191 18.9116 10.0688 18.7591 10.2214L14.4175 14.5631C14.3424 14.6392 14.2527 14.6995 14.1539 14.7405C14.0552 14.7816 13.9491 14.8024 13.8422 14.8019Z" fill="white"/>
<path d="M18.1834 10.4606H6.24375C6.02785 10.4606 5.82079 10.3749 5.66812 10.2222C5.51546 10.0696 5.42969 9.86247 5.42969 9.64658C5.42969 9.43069 5.51546 9.2236 5.66812 9.07099C5.82079 8.91827 6.02785 8.83252 6.24375 8.83252H18.1834C18.3993 8.83252 18.6064 8.91827 18.759 9.07099C18.9117 9.2236 18.9974 9.43069 18.9974 9.64658C18.9974 9.86247 18.9117 10.0696 18.759 10.2222C18.6064 10.3749 18.3993 10.4606 18.1834 10.4606Z" fill="white"/>
</svg>
